<svg width="145" height="28" viewBox="0 0 145 28" fill="none" xmlns="http://www.w3.org/2000/svg">
<g clip-path="url(#clip0_4269_34)">
<path d="M78.25 0H14C6.26801 0 0 6.26801 0 14C0 21.732 6.26801 28 14 28H78.25V0Z" fill="#555555"/>
<path d="M130.5 0H78.25V28H130.5C138.232 28 144.5 21.732 144.5 14C144.5 6.26801 138.232 0 130.5 0Z" fill="#8056D5"/>
<path d="M29.083 17.5H24.293V10.2295H29.083V11.0889H25.2598V13.0811H29.083V13.9404H25.2598V16.6406H29.083V17.5ZM37.0957 17.5H36.1289V11.2354L34.1074 15.498H33.5312L31.5244 11.2354V17.5H30.6211V10.2295H31.9395L33.8779 14.2773L35.7529 10.2295H37.0957V17.5ZM44.7812 17.5H43.751L43.0381 15.4736H39.8936L39.1807 17.5H38.1992L40.8457 10.2295H42.1348L44.7812 17.5ZM42.7402 14.6436L41.4658 11.0742L40.1865 14.6436H42.7402ZM48.4482 17.5H45.5771V16.7578H46.5293V10.9717H45.5771V10.2295H48.4482V10.9717H47.4961V16.7578H48.4482V17.5ZM54.6934 17.5H50.0938V10.2295H51.0605V16.6406H54.6934V17.5Z" fill="white"/>
<path d="M96.8936 17.5H94.5938L92.4209 14.5898L91.9814 15.1221V17.5H90.1064V10.2295H91.9814V13.5205L94.5791 10.2295H96.752L93.9102 13.5938L96.8936 17.5ZM101.752 17.5H97.4941V16.2109H98.6855V11.5186H97.4941V10.2295H101.752V11.5186H100.561V16.2109H101.752V17.5ZM109.101 15.2148C109.101 15.931 108.796 16.5137 108.188 16.9629C107.582 17.4089 106.758 17.6318 105.717 17.6318C105.115 17.6318 104.589 17.5798 104.14 17.4756C103.694 17.3682 103.275 17.2331 102.885 17.0703V15.3271H103.09C103.477 15.6364 103.91 15.874 104.389 16.04C104.87 16.2061 105.333 16.2891 105.775 16.2891C105.889 16.2891 106.039 16.2793 106.225 16.2598C106.41 16.2402 106.562 16.2077 106.679 16.1621C106.822 16.1035 106.939 16.0303 107.03 15.9424C107.125 15.8545 107.172 15.7243 107.172 15.5518C107.172 15.3923 107.104 15.2555 106.967 15.1416C106.833 15.0244 106.636 14.9349 106.376 14.873C106.103 14.8079 105.813 14.7477 105.507 14.6924C105.204 14.6338 104.919 14.5605 104.652 14.4727C104.04 14.2741 103.599 14.0055 103.329 13.667C103.062 13.3252 102.929 12.902 102.929 12.3975C102.929 11.7204 103.231 11.1686 103.837 10.7422C104.446 10.3125 105.227 10.0977 106.181 10.0977C106.659 10.0977 107.131 10.1449 107.597 10.2393C108.065 10.3304 108.471 10.446 108.812 10.5859V12.2607H108.612C108.319 12.0264 107.96 11.8311 107.533 11.6748C107.11 11.5153 106.677 11.4355 106.234 11.4355C106.078 11.4355 105.922 11.4469 105.766 11.4697C105.613 11.4893 105.465 11.5283 105.321 11.5869C105.194 11.6357 105.085 11.7106 104.994 11.8115C104.903 11.9092 104.857 12.0215 104.857 12.1484C104.857 12.3405 104.931 12.4886 105.077 12.5928C105.224 12.6937 105.5 12.7865 105.907 12.8711C106.174 12.9264 106.43 12.9801 106.674 13.0322C106.921 13.0843 107.187 13.1559 107.47 13.2471C108.026 13.4294 108.437 13.6784 108.7 13.9941C108.967 14.3066 109.101 14.7135 109.101 15.2148ZM116.908 17.5H115.033V14.2969H112.265V17.5H110.39V10.2295H112.265V12.8906H115.033V10.2295H116.908V17.5ZM125.487 17.5H123.549L123.046 16.0303H120.351L119.848 17.5H117.958L120.644 10.2295H122.802L125.487 17.5ZM122.592 14.6973L121.698 12.0898L120.805 14.6973H122.592ZM133.144 17.5H131.337L128.251 12.5098V17.5H126.532V10.2295H128.773L131.425 14.3945V10.2295H133.144V17.5Z" fill="white"/>
</g>
<defs>
<clipPath id="clip0_4269_34">
<rect width="144.5" height="28" fill="white"/>
</clipPath>
</defs>
</svg>
