<svg width="251" height="28" viewBox="0 0 251 28" fill="none" xmlns="http://www.w3.org/2000/svg">
<g clip-path="url(#clip0_4269_41)">
<path d="M113.25 0H14C6.26801 0 0 6.26801 0 14C0 21.732 6.26802 28 14 28H113.25V0Z" fill="#555555"/>
<path d="M236.5 0H113.25V28H236.5C244.232 28 250.5 21.732 250.5 14C250.5 6.26801 244.232 0 236.5 0Z" fill="#E05D44"/>
<path d="M30.5859 17.5H27.7148V16.7578H28.667V10.9717H27.7148V10.2295H30.5859V10.9717H29.6338V16.7578H30.5859V17.5ZM37.7783 17.5H36.582L33.1348 10.9961V17.5H32.2314V10.2295H33.7305L36.875 16.167V10.2295H37.7783V17.5ZM44.9951 15.4248C44.9951 15.708 44.9284 15.988 44.7949 16.2646C44.6647 16.5413 44.4808 16.7757 44.2432 16.9678C43.9827 17.1761 43.6784 17.3389 43.3301 17.4561C42.985 17.5732 42.5684 17.6318 42.0801 17.6318C41.556 17.6318 41.084 17.583 40.6641 17.4854C40.2474 17.3877 39.8226 17.2428 39.3896 17.0508V15.8398H39.458C39.8258 16.1458 40.2507 16.3818 40.7324 16.5479C41.2142 16.7139 41.6667 16.7969 42.0898 16.7969C42.6888 16.7969 43.1543 16.6846 43.4863 16.46C43.8216 16.2354 43.9893 15.9359 43.9893 15.5615C43.9893 15.2393 43.9095 15.0016 43.75 14.8486C43.5938 14.6956 43.3545 14.5768 43.0322 14.4922C42.7881 14.4271 42.5228 14.3734 42.2363 14.3311C41.9531 14.2887 41.652 14.235 41.333 14.1699C40.6885 14.0332 40.21 13.8005 39.8975 13.4717C39.5882 13.1396 39.4336 12.7083 39.4336 12.1777C39.4336 11.569 39.6908 11.071 40.2051 10.6836C40.7194 10.293 41.3721 10.0977 42.1631 10.0977C42.6742 10.0977 43.1429 10.1465 43.5693 10.2441C43.9958 10.3418 44.3734 10.4622 44.7021 10.6055V11.748H44.6338C44.3571 11.5137 43.9925 11.32 43.54 11.167C43.0908 11.0107 42.6302 10.9326 42.1582 10.9326C41.6406 10.9326 41.224 11.04 40.9082 11.2549C40.5957 11.4697 40.4395 11.7464 40.4395 12.085C40.4395 12.3877 40.5176 12.6253 40.6738 12.7979C40.8301 12.9704 41.1051 13.1022 41.499 13.1934C41.7074 13.2389 42.0036 13.2943 42.3877 13.3594C42.7718 13.4245 43.0973 13.4912 43.3643 13.5596C43.9046 13.7028 44.3115 13.9193 44.585 14.209C44.8584 14.4987 44.9951 14.904 44.9951 15.4248ZM51.7334 11.0889H49.1357V17.5H48.1689V11.0889H45.5713V10.2295H51.7334V11.0889ZM57.8564 17.5H56.8262L56.1133 15.4736H52.9688L52.2559 17.5H51.2744L53.9209 10.2295H55.21L57.8564 17.5ZM55.8154 14.6436L54.541 11.0742L53.2617 14.6436H55.8154ZM65.0244 16.9629C64.6273 17.1452 64.1927 17.3047 63.7207 17.4414C63.252 17.5749 62.7979 17.6416 62.3584 17.6416C61.792 17.6416 61.2728 17.5635 60.8008 17.4072C60.3288 17.251 59.9268 17.0166 59.5947 16.7041C59.2594 16.3883 59.0007 15.9945 58.8184 15.5225C58.6361 15.0472 58.5449 14.4922 58.5449 13.8574C58.5449 12.6953 58.8835 11.779 59.5605 11.1084C60.2409 10.4346 61.1735 10.0977 62.3584 10.0977C62.7718 10.0977 63.1934 10.1481 63.623 10.249C64.056 10.3467 64.5215 10.5143 65.0195 10.752V11.8994H64.9316C64.8307 11.8213 64.6842 11.7188 64.4922 11.5918C64.3001 11.4648 64.1113 11.359 63.9258 11.2744C63.7012 11.1735 63.4456 11.0905 63.1592 11.0254C62.876 10.957 62.5537 10.9229 62.1924 10.9229C61.3786 10.9229 60.734 11.1849 60.2588 11.709C59.7868 12.2298 59.5508 12.9362 59.5508 13.8281C59.5508 14.7689 59.7982 15.5013 60.293 16.0254C60.7878 16.5462 61.4616 16.8066 62.3145 16.8066C62.627 16.8066 62.9378 16.7757 63.2471 16.7139C63.5596 16.652 63.833 16.5723 64.0674 16.4746V14.6924H62.1191V13.8428H65.0244V16.9629ZM72.7295 17.5H71.4746L69.043 14.6094H67.6807V17.5H66.7139V10.2295H68.75C69.1895 10.2295 69.5557 10.2588 69.8486 10.3174C70.1416 10.3727 70.4053 10.4736 70.6396 10.6201C70.9033 10.7861 71.1084 10.9961 71.2549 11.25C71.4046 11.5007 71.4795 11.8197 71.4795 12.207C71.4795 12.7311 71.3477 13.1706 71.084 13.5254C70.8203 13.877 70.4574 14.1423 69.9951 14.3213L72.7295 17.5ZM70.4688 12.2754C70.4688 12.0671 70.4313 11.8831 70.3564 11.7236C70.2848 11.5609 70.1644 11.4242 69.9951 11.3135C69.8551 11.2191 69.6891 11.154 69.4971 11.1182C69.305 11.0791 69.0788 11.0596 68.8184 11.0596H67.6807V13.8037H68.6572C68.9632 13.8037 69.2301 13.7777 69.458 13.7256C69.6859 13.6702 69.8796 13.5693 70.0391 13.4229C70.1855 13.2861 70.293 13.1299 70.3613 12.9541C70.4329 12.7751 70.4688 12.5488 70.4688 12.2754ZM79.3994 17.5H78.3691L77.6562 15.4736H74.5117L73.7988 17.5H72.8174L75.4639 10.2295H76.7529L79.3994 17.5ZM77.3584 14.6436L76.084 11.0742L74.8047 14.6436H77.3584ZM86.9775 17.5H86.0107V11.2354L83.9893 15.498H83.4131L81.4062 11.2354V17.5H80.5029V10.2295H81.8213L83.7598 14.2773L85.6348 10.2295H86.9775V17.5Z" fill="white"/>
<path d="M138.457 15.083H134.434C134.46 15.5127 134.622 15.8415 134.922 16.0693C135.225 16.2972 135.669 16.4111 136.255 16.4111C136.626 16.4111 136.986 16.3444 137.334 16.2109C137.682 16.0775 137.957 15.9342 138.159 15.7812H138.354V17.1924C137.957 17.3519 137.583 17.4674 137.231 17.5391C136.88 17.6107 136.491 17.6465 136.064 17.6465C134.964 17.6465 134.121 17.3991 133.535 16.9043C132.949 16.4095 132.656 15.7048 132.656 14.79C132.656 13.8851 132.933 13.1689 133.486 12.6416C134.043 12.111 134.805 11.8457 135.771 11.8457C136.663 11.8457 137.334 12.0719 137.783 12.5244C138.232 12.9736 138.457 13.6214 138.457 14.4678V15.083ZM136.709 14.0527C136.699 13.6849 136.608 13.4082 136.436 13.2227C136.263 13.0371 135.994 12.9443 135.63 12.9443C135.291 12.9443 135.013 13.0322 134.795 13.208C134.577 13.3838 134.455 13.6654 134.429 14.0527H136.709ZM143.672 13.6914H143.516C143.441 13.6654 143.32 13.6458 143.154 13.6328C142.988 13.6198 142.85 13.6133 142.739 13.6133C142.489 13.6133 142.267 13.6296 142.075 13.6621C141.883 13.6947 141.676 13.75 141.455 13.8281V17.5H139.697V12.0166H141.455V12.8223C141.842 12.4902 142.179 12.2705 142.466 12.1631C142.752 12.0524 143.016 11.9971 143.257 11.9971C143.319 11.9971 143.389 11.9987 143.467 12.002C143.545 12.0052 143.613 12.0101 143.672 12.0166V13.6914ZM146.558 17.5H144.731V15.5811H146.558V17.5ZM154.102 17.5H152.056L150.518 15.1123L150.039 15.6934V17.5H148.281V9.90234H150.039V14.4385L151.934 12.0166H153.96L151.987 14.3799L154.102 17.5ZM156.748 17.5H154.99V12.0166H156.748V17.5ZM156.797 11.2354H154.941V9.90234H156.797V11.2354ZM163.174 15.7617C163.174 16.3281 162.92 16.7855 162.412 17.1338C161.904 17.4788 161.209 17.6514 160.327 17.6514C159.839 17.6514 159.396 17.6058 158.999 17.5146C158.602 17.4235 158.283 17.3226 158.042 17.2119V15.7666H158.203C158.291 15.8285 158.392 15.8968 158.506 15.9717C158.623 16.0433 158.787 16.1214 158.999 16.2061C159.181 16.2809 159.388 16.346 159.619 16.4014C159.85 16.4535 160.098 16.4795 160.361 16.4795C160.706 16.4795 160.962 16.4421 161.128 16.3672C161.294 16.2891 161.377 16.1751 161.377 16.0254C161.377 15.8919 161.328 15.7959 161.23 15.7373C161.133 15.6755 160.947 15.6169 160.674 15.5615C160.544 15.5322 160.366 15.5013 160.142 15.4688C159.92 15.4329 159.718 15.3906 159.536 15.3418C159.038 15.2116 158.669 15.0098 158.428 14.7363C158.187 14.4596 158.066 14.1162 158.066 13.7061C158.066 13.1787 158.315 12.7409 158.813 12.3926C159.315 12.041 159.998 11.8652 160.864 11.8652C161.274 11.8652 161.667 11.9076 162.041 11.9922C162.419 12.0736 162.713 12.1615 162.925 12.2559V13.6426H162.773C162.513 13.4635 162.215 13.3187 161.88 13.208C161.548 13.0941 161.211 13.0371 160.869 13.0371C160.586 13.0371 160.347 13.0762 160.151 13.1543C159.959 13.2324 159.863 13.3431 159.863 13.4863C159.863 13.6165 159.907 13.7158 159.995 13.7842C160.083 13.8525 160.29 13.9209 160.615 13.9893C160.794 14.0251 160.986 14.0609 161.191 14.0967C161.4 14.1292 161.608 14.1715 161.816 14.2236C162.279 14.3441 162.62 14.5345 162.842 14.7949C163.063 15.0521 163.174 15.3743 163.174 15.7617ZM169.854 17.5H168.086V14.7803C168.086 14.5589 168.075 14.3392 168.052 14.1211C168.029 13.8997 167.99 13.737 167.935 13.6328C167.869 13.5124 167.773 13.4245 167.646 13.3691C167.523 13.3138 167.349 13.2861 167.124 13.2861C166.965 13.2861 166.802 13.3122 166.636 13.3643C166.473 13.4163 166.296 13.4993 166.104 13.6133V17.5H164.346V9.90234H166.104V12.6221C166.416 12.3779 166.715 12.1908 167.002 12.0605C167.292 11.9303 167.612 11.8652 167.964 11.8652C168.556 11.8652 169.019 12.0378 169.351 12.3828C169.686 12.7279 169.854 13.2438 169.854 13.9307V17.5ZM174.795 16.0693V14.9268C174.557 14.9463 174.3 14.974 174.023 15.0098C173.747 15.0423 173.537 15.0814 173.394 15.127C173.218 15.1823 173.083 15.2637 172.988 15.3711C172.897 15.4753 172.852 15.6136 172.852 15.7861C172.852 15.9001 172.861 15.9928 172.881 16.0645C172.9 16.1361 172.949 16.2044 173.027 16.2695C173.102 16.3346 173.192 16.3835 173.296 16.416C173.4 16.4453 173.563 16.46 173.784 16.46C173.96 16.46 174.137 16.4242 174.316 16.3525C174.499 16.2809 174.658 16.1865 174.795 16.0693ZM174.795 16.9189C174.701 16.9906 174.583 17.0768 174.443 17.1777C174.303 17.2786 174.172 17.3584 174.048 17.417C173.875 17.4951 173.696 17.5521 173.511 17.5879C173.325 17.627 173.122 17.6465 172.9 17.6465C172.38 17.6465 171.943 17.4854 171.592 17.1631C171.24 16.8408 171.064 16.429 171.064 15.9277C171.064 15.5273 171.154 15.2002 171.333 14.9463C171.512 14.6924 171.766 14.4922 172.095 14.3457C172.42 14.1992 172.824 14.0951 173.306 14.0332C173.787 13.9714 174.287 13.9258 174.805 13.8965V13.8672C174.805 13.5645 174.681 13.3561 174.434 13.2422C174.186 13.125 173.822 13.0664 173.34 13.0664C173.05 13.0664 172.741 13.1185 172.412 13.2227C172.083 13.3236 171.847 13.4017 171.704 13.457H171.543V12.1338C171.729 12.085 172.03 12.028 172.446 11.9629C172.866 11.8945 173.286 11.8604 173.706 11.8604C174.705 11.8604 175.426 12.015 175.869 12.3242C176.315 12.6302 176.538 13.112 176.538 13.7695V17.5H174.795V16.9189ZM183.662 17.5H181.895V14.7803C181.895 14.5589 181.883 14.3392 181.86 14.1211C181.838 13.8997 181.799 13.737 181.743 13.6328C181.678 13.5124 181.582 13.4245 181.455 13.3691C181.331 13.3138 181.157 13.2861 180.933 13.2861C180.773 13.2861 180.61 13.3122 180.444 13.3643C180.282 13.4163 180.104 13.4993 179.912 13.6133V17.5H178.154V12.0166H179.912V12.6221C180.225 12.3779 180.524 12.1908 180.811 12.0605C181.1 11.9303 181.421 11.8652 181.772 11.8652C182.365 11.8652 182.827 12.0378 183.159 12.3828C183.494 12.7279 183.662 13.2438 183.662 13.9307V17.5ZM190.806 12.0166L188.691 17.5H186.699L184.6 12.0166H186.46L187.729 15.7861L188.984 12.0166H190.806ZM195.107 16.0693V14.9268C194.87 14.9463 194.613 14.974 194.336 15.0098C194.059 15.0423 193.849 15.0814 193.706 15.127C193.53 15.1823 193.395 15.2637 193.301 15.3711C193.21 15.4753 193.164 15.6136 193.164 15.7861C193.164 15.9001 193.174 15.9928 193.193 16.0645C193.213 16.1361 193.262 16.2044 193.34 16.2695C193.415 16.3346 193.504 16.3835 193.608 16.416C193.713 16.4453 193.875 16.46 194.097 16.46C194.272 16.46 194.45 16.4242 194.629 16.3525C194.811 16.2809 194.971 16.1865 195.107 16.0693ZM195.107 16.9189C195.013 16.9906 194.896 17.0768 194.756 17.1777C194.616 17.2786 194.484 17.3584 194.36 17.417C194.188 17.4951 194.009 17.5521 193.823 17.5879C193.638 17.627 193.434 17.6465 193.213 17.6465C192.692 17.6465 192.256 17.4854 191.904 17.1631C191.553 16.8408 191.377 16.429 191.377 15.9277C191.377 15.5273 191.466 15.2002 191.646 14.9463C191.825 14.6924 192.078 14.4922 192.407 14.3457C192.733 14.1992 193.136 14.0951 193.618 14.0332C194.1 13.9714 194.6 13.9258 195.117 13.8965V13.8672C195.117 13.5645 194.993 13.3561 194.746 13.2422C194.499 13.125 194.134 13.0664 193.652 13.0664C193.363 13.0664 193.053 13.1185 192.725 13.2227C192.396 13.3236 192.16 13.4017 192.017 13.457H191.855V12.1338C192.041 12.085 192.342 12.028 192.759 11.9629C193.179 11.8945 193.599 11.8604 194.019 11.8604C195.018 11.8604 195.739 12.015 196.182 12.3242C196.628 12.6302 196.851 13.112 196.851 13.7695V17.5H195.107V16.9189ZM203.799 17.5H202.041V16.9287C201.738 17.1761 201.455 17.3584 201.191 17.4756C200.928 17.5928 200.623 17.6514 200.278 17.6514C199.611 17.6514 199.077 17.3942 198.677 16.8799C198.276 16.3656 198.076 15.6722 198.076 14.7998C198.076 14.3343 198.143 13.9225 198.276 13.5645C198.413 13.2031 198.599 12.8939 198.833 12.6367C199.054 12.3926 199.323 12.2038 199.639 12.0703C199.954 11.9336 200.27 11.8652 200.586 11.8652C200.915 11.8652 201.183 11.901 201.392 11.9727C201.603 12.041 201.82 12.1289 202.041 12.2363V9.90234H203.799V17.5ZM202.041 15.9863V13.2959C201.917 13.2438 201.787 13.2064 201.65 13.1836C201.514 13.1608 201.388 13.1494 201.274 13.1494C200.812 13.1494 200.465 13.2943 200.234 13.584C200.003 13.8704 199.888 14.2692 199.888 14.7803C199.888 15.3174 199.98 15.708 200.166 15.9521C200.352 16.193 200.649 16.3135 201.06 16.3135C201.219 16.3135 201.388 16.2842 201.567 16.2256C201.746 16.1637 201.904 16.084 202.041 15.9863ZM211.064 14.7607C211.064 15.6624 210.801 16.3737 210.273 16.8945C209.749 17.4121 209.012 17.6709 208.062 17.6709C207.111 17.6709 206.372 17.4121 205.845 16.8945C205.321 16.3737 205.059 15.6624 205.059 14.7607C205.059 13.8525 205.322 13.1396 205.85 12.6221C206.38 12.1045 207.118 11.8457 208.062 11.8457C209.019 11.8457 209.757 12.1061 210.278 12.627C210.802 13.1478 211.064 13.859 211.064 14.7607ZM208.901 16.0938C209.015 15.9538 209.1 15.7861 209.155 15.5908C209.214 15.3923 209.243 15.1188 209.243 14.7705C209.243 14.4482 209.214 14.1781 209.155 13.96C209.097 13.7419 209.015 13.5677 208.911 13.4375C208.807 13.304 208.682 13.2096 208.535 13.1543C208.389 13.099 208.231 13.0713 208.062 13.0713C207.892 13.0713 207.741 13.0941 207.607 13.1396C207.477 13.1852 207.352 13.2764 207.231 13.4131C207.124 13.54 207.038 13.7142 206.973 13.9355C206.911 14.1569 206.88 14.4352 206.88 14.7705C206.88 15.07 206.908 15.3304 206.963 15.5518C207.018 15.7699 207.1 15.9456 207.207 16.0791C207.311 16.2061 207.435 16.2988 207.578 16.3574C207.725 16.416 207.891 16.4453 208.076 16.4453C208.236 16.4453 208.387 16.4193 208.53 16.3672C208.677 16.3118 208.8 16.2207 208.901 16.0938ZM214.082 17.5H212.324V9.90234H214.082V17.5ZM217.5 17.5H215.742V12.0166H217.5V17.5ZM217.549 11.2354H215.693V9.90234H217.549V11.2354ZM221.636 15.5615L222.886 12.0166H224.692L221.646 19.5117H219.741L220.61 17.4609L218.477 12.0166H220.322L221.636 15.5615ZM228.994 16.0693V14.9268C228.757 14.9463 228.499 14.974 228.223 15.0098C227.946 15.0423 227.736 15.0814 227.593 15.127C227.417 15.1823 227.282 15.2637 227.188 15.3711C227.096 15.4753 227.051 15.6136 227.051 15.7861C227.051 15.9001 227.061 15.9928 227.08 16.0645C227.1 16.1361 227.148 16.2044 227.227 16.2695C227.301 16.3346 227.391 16.3835 227.495 16.416C227.599 16.4453 227.762 16.46 227.983 16.46C228.159 16.46 228.337 16.4242 228.516 16.3525C228.698 16.2809 228.857 16.1865 228.994 16.0693ZM228.994 16.9189C228.9 16.9906 228.783 17.0768 228.643 17.1777C228.503 17.2786 228.371 17.3584 228.247 17.417C228.075 17.4951 227.896 17.5521 227.71 17.5879C227.524 17.627 227.321 17.6465 227.1 17.6465C226.579 17.6465 226.143 17.4854 225.791 17.1631C225.439 16.8408 225.264 16.429 225.264 15.9277C225.264 15.5273 225.353 15.2002 225.532 14.9463C225.711 14.6924 225.965 14.4922 226.294 14.3457C226.619 14.1992 227.023 14.0951 227.505 14.0332C227.987 13.9714 228.486 13.9258 229.004 13.8965V13.8672C229.004 13.5645 228.88 13.3561 228.633 13.2422C228.385 13.125 228.021 13.0664 227.539 13.0664C227.249 13.0664 226.94 13.1185 226.611 13.2227C226.283 13.3236 226.047 13.4017 225.903 13.457H225.742V12.1338C225.928 12.085 226.229 12.028 226.646 11.9629C227.065 11.8945 227.485 11.8604 227.905 11.8604C228.905 11.8604 229.626 12.015 230.068 12.3242C230.514 12.6302 230.737 13.112 230.737 13.7695V17.5H228.994V16.9189Z" fill="white"/>
</g>
<defs>
<clipPath id="clip0_4269_41">
<rect width="250.5" height="28" fill="white"/>
</clipPath>
</defs>
</svg>
