<svg width="167" height="28" viewBox="0 0 167 28" fill="none" xmlns="http://www.w3.org/2000/svg">
<path d="M100 0H14C6.26801 0 0 6.26801 0 14C0 21.732 6.26801 28 14 28H100V0Z" fill="#555555"/>
<path d="M152.25 0H100V28H152.25C159.982 28 166.25 21.732 166.25 14C166.25 6.26801 159.982 0 152.25 0Z" fill="#007EC6"/>
<path d="M30.6201 17.5H26.0205V10.2295H26.9873V16.6406H30.6201V17.5ZM34.1504 17.5H31.2793V16.7578H32.2314V10.9717H31.2793V10.2295H34.1504V10.9717H33.1982V16.7578H34.1504V17.5ZM41.3428 17.5H40.1465L36.6992 10.9961V17.5H35.7959V10.2295H37.2949L40.4395 16.167V10.2295H41.3428V17.5ZM49.1211 17.5H47.8662L44.9902 14.2627L44.2676 15.0342V17.5H43.3008V10.2295H44.2676V14.0234L47.7979 10.2295H48.9697L45.7227 13.6475L49.1211 17.5ZM55 17.5H50.21V10.2295H55V11.0889H51.1768V13.0811H55V13.9404H51.1768V16.6406H55V17.5ZM62.6807 13.8721C62.6807 14.5329 62.5358 15.1318 62.2461 15.6689C61.9596 16.2061 61.5771 16.6227 61.0986 16.9189C60.7666 17.124 60.3955 17.2721 59.9854 17.3633C59.5785 17.4544 59.0413 17.5 58.374 17.5H56.5381V10.2295H58.3545C59.0641 10.2295 59.6273 10.2816 60.0439 10.3857C60.4639 10.4867 60.8187 10.6266 61.1084 10.8057C61.6032 11.1149 61.9889 11.5267 62.2656 12.041C62.5423 12.5553 62.6807 13.1657 62.6807 13.8721ZM61.6699 13.8574C61.6699 13.2878 61.5706 12.8076 61.3721 12.417C61.1735 12.0264 60.8773 11.7188 60.4834 11.4941C60.1969 11.3314 59.8926 11.2191 59.5703 11.1572C59.248 11.0921 58.8623 11.0596 58.4131 11.0596H57.5049V16.6699H58.4131C58.8786 16.6699 59.2839 16.6357 59.6289 16.5674C59.9772 16.499 60.2962 16.3721 60.5859 16.1865C60.9473 15.9554 61.2174 15.651 61.3965 15.2734C61.5788 14.8958 61.6699 14.4238 61.6699 13.8574ZM66.8066 17.5H63.9355V16.7578H64.8877V10.9717H63.9355V10.2295H66.8066V10.9717H65.8545V16.7578H66.8066V17.5ZM73.999 17.5H72.8027L69.3555 10.9961V17.5H68.4521V10.2295H69.9512L73.0957 16.167V10.2295H73.999V17.5Z" fill="white"/>
<path d="M118.894 17.5H116.594L114.421 14.5898L113.981 15.1221V17.5H112.106V10.2295H113.981V13.5205L116.579 10.2295H118.752L115.91 13.5938L118.894 17.5ZM123.752 17.5H119.494V16.2109H120.686V11.5186H119.494V10.2295H123.752V11.5186H122.561V16.2109H123.752V17.5ZM131.101 15.2148C131.101 15.931 130.796 16.5137 130.188 16.9629C129.582 17.4089 128.758 17.6318 127.717 17.6318C127.115 17.6318 126.589 17.5798 126.14 17.4756C125.694 17.3682 125.275 17.2331 124.885 17.0703V15.3271H125.09C125.477 15.6364 125.91 15.874 126.389 16.04C126.87 16.2061 127.333 16.2891 127.775 16.2891C127.889 16.2891 128.039 16.2793 128.225 16.2598C128.41 16.2402 128.562 16.2077 128.679 16.1621C128.822 16.1035 128.939 16.0303 129.03 15.9424C129.125 15.8545 129.172 15.7243 129.172 15.5518C129.172 15.3923 129.104 15.2555 128.967 15.1416C128.833 15.0244 128.636 14.9349 128.376 14.873C128.103 14.8079 127.813 14.7477 127.507 14.6924C127.204 14.6338 126.919 14.5605 126.652 14.4727C126.04 14.2741 125.599 14.0055 125.329 13.667C125.062 13.3252 124.929 12.902 124.929 12.3975C124.929 11.7204 125.231 11.1686 125.837 10.7422C126.446 10.3125 127.227 10.0977 128.181 10.0977C128.659 10.0977 129.131 10.1449 129.597 10.2393C130.065 10.3304 130.471 10.446 130.812 10.5859V12.2607H130.612C130.319 12.0264 129.96 11.8311 129.533 11.6748C129.11 11.5153 128.677 11.4355 128.234 11.4355C128.078 11.4355 127.922 11.4469 127.766 11.4697C127.613 11.4893 127.465 11.5283 127.321 11.5869C127.194 11.6357 127.085 11.7106 126.994 11.8115C126.903 11.9092 126.857 12.0215 126.857 12.1484C126.857 12.3405 126.931 12.4886 127.077 12.5928C127.224 12.6937 127.5 12.7865 127.907 12.8711C128.174 12.9264 128.43 12.9801 128.674 13.0322C128.921 13.0843 129.187 13.1559 129.47 13.2471C130.026 13.4294 130.437 13.6784 130.7 13.9941C130.967 14.3066 131.101 14.7135 131.101 15.2148ZM138.908 17.5H137.033V14.2969H134.265V17.5H132.39V10.2295H134.265V12.8906H137.033V10.2295H138.908V17.5ZM147.487 17.5H145.549L145.046 16.0303H142.351L141.848 17.5H139.958L142.644 10.2295H144.802L147.487 17.5ZM144.592 14.6973L143.698 12.0898L142.805 14.6973H144.592ZM155.144 17.5H153.337L150.251 12.5098V17.5H148.532V10.2295H150.773L153.425 14.3945V10.2295H155.144V17.5Z" fill="white"/>
</svg>
